<svg width="466" height="389" viewBox="0 0 466 389" fill="none" xmlns="http://www.w3.org/2000/svg">
<path d="M119.647 247.844H93.295C84.295 247.844 77.599 246.044 73.207 242.444C68.887 238.844 66.727 233.3 66.727 225.812V192.224C66.727 184.736 68.887 179.192 73.207 175.592C77.599 171.92 84.295 170.084 93.295 170.084H119.647C121.015 170.084 121.987 170.408 122.563 171.056C123.211 171.632 123.535 172.604 123.535 173.972V187.04C123.535 188.408 123.211 189.416 122.563 190.064C121.987 190.64 121.015 190.928 119.647 190.928H97.939C95.707 190.928 94.051 191.396 92.971 192.332C91.891 193.196 91.351 194.528 91.351 196.328V222.032C91.351 223.832 91.891 225.164 92.971 226.028C94.051 226.82 95.707 227.216 97.939 227.216H119.647C121.015 227.216 121.987 227.54 122.563 228.188C123.211 228.764 123.535 229.736 123.535 231.104V243.956C123.535 245.324 123.211 246.332 122.563 246.98C121.987 247.556 121.015 247.844 119.647 247.844ZM160.139 189.524V203.348H168.239C170.111 203.348 171.371 202.88 172.019 201.944C172.667 200.936 172.991 199.712 172.991 198.272V194.6C172.991 193.16 172.667 191.972 172.019 191.036C171.371 190.028 170.111 189.524 168.239 189.524H160.139ZM156.251 247.844H139.619C138.251 247.844 137.243 247.556 136.595 246.98C136.019 246.332 135.731 245.324 135.731 243.956V173.972C135.731 172.604 136.019 171.632 136.595 171.056C137.243 170.408 138.251 170.084 139.619 170.084H175.583C183.647 170.084 189.191 171.776 192.215 175.16C195.311 178.472 196.859 182.792 196.859 188.12V193.088C196.859 196.112 196.391 198.704 195.455 200.864C194.591 202.952 193.043 204.464 190.811 205.4C194.699 205.832 197.831 207.416 200.207 210.152C202.655 212.888 203.879 216.524 203.879 221.06V243.956C203.879 245.324 203.555 246.332 202.907 246.98C202.331 247.556 201.359 247.844 199.991 247.844H183.251C181.883 247.844 180.875 247.556 180.227 246.98C179.651 246.332 179.363 245.324 179.363 243.956V227.432C179.363 225.848 179.039 224.696 178.391 223.976C177.815 223.184 176.771 222.788 175.259 222.788H160.139V243.956C160.139 245.324 159.815 246.332 159.167 246.98C158.591 247.556 157.619 247.844 156.251 247.844ZM269.993 247.844H219.881C218.513 247.844 217.505 247.556 216.857 246.98C216.281 246.332 215.993 245.324 215.993 243.956V173.972C215.993 172.604 216.281 171.632 216.857 171.056C217.505 170.408 218.513 170.084 219.881 170.084H269.993C271.361 170.084 272.333 170.408 272.909 171.056C273.557 171.632 273.881 172.604 273.881 173.972V186.608C273.881 187.976 273.557 188.984 272.909 189.632C272.333 190.208 271.361 190.496 269.993 190.496H240.185V198.812H261.245C262.613 198.812 263.585 199.136 264.161 199.784C264.809 200.36 265.133 201.332 265.133 202.7V214.256C265.133 215.624 264.809 216.632 264.161 217.28C263.585 217.856 262.613 218.144 261.245 218.144H240.185V227.432H269.993C271.361 227.432 272.333 227.756 272.909 228.404C273.557 228.98 273.881 229.952 273.881 231.32V243.956C273.881 245.324 273.557 246.332 272.909 246.98C272.333 247.556 271.361 247.844 269.993 247.844ZM342.493 170.084H358.585C359.953 170.084 360.925 170.408 361.501 171.056C362.149 171.632 362.473 172.604 362.473 173.972V215.876C362.473 218.18 362.365 220.34 362.149 222.356C362.005 224.3 361.465 226.604 360.529 229.268L355.129 243.956C354.769 245.036 354.229 245.972 353.509 246.764C352.861 247.484 351.961 247.844 350.809 247.844H336.445C335.293 247.844 334.249 247.592 333.313 247.088C332.377 246.584 331.765 245.756 331.477 244.604L326.509 227C326.293 226.28 326.005 225.812 325.645 225.596C325.357 225.308 324.997 225.164 324.565 225.164H323.593C323.161 225.164 322.765 225.308 322.405 225.596C322.117 225.812 321.865 226.28 321.649 227L316.573 244.604C316.285 245.684 315.745 246.512 314.953 247.088C314.161 247.592 313.189 247.844 312.037 247.844H297.781C296.629 247.844 295.621 247.484 294.757 246.764C293.965 246.044 293.389 245.108 293.029 243.956L287.629 229.052C286.693 226.388 286.117 224.084 285.901 222.14C285.757 220.124 285.685 217.964 285.685 215.66V173.972C285.685 172.604 285.973 171.632 286.549 171.056C287.197 170.408 288.205 170.084 289.573 170.084H306.205C307.573 170.084 308.545 170.408 309.121 171.056C309.769 171.632 310.093 172.604 310.093 173.972V213.716L316.357 200.108C316.933 198.884 317.689 198.02 318.625 197.516C319.561 197.012 320.713 196.76 322.081 196.76H326.617C327.985 196.76 329.137 197.012 330.073 197.516C331.009 198.02 331.765 198.884 332.341 200.108L338.605 213.716V173.972C338.605 172.604 338.893 171.632 339.469 171.056C340.117 170.408 341.125 170.084 342.493 170.084Z" fill="white"/>
<path d="M339.069 254.522C328.679 262.499 314.76 273.534 303.969 281.817C289.54 292.894 274.97 303.131 260.427 312.503C261.186 315.608 261.946 318.704 262.706 321.799C280.99 310.491 297.045 300.428 314.916 286.711C327.973 276.688 342.762 265.376 349.297 260.711C346.72 256.981 351.83 249.75 349.297 246.052C346.057 248.932 342.651 251.773 339.069 254.522ZM393.91 196.12C387.478 202.69 365.415 229.467 349.297 246.052C351.839 249.765 346.7 256.953 349.297 260.711C364.862 250.045 402.985 221.258 408.627 209.787C417.137 192.509 402.155 187.706 393.91 196.12ZM163.227 106.46C40.0543 201.023 -28.1877 317.242 12.0333 367.943C43.2684 407.322 165.256 374.881 262.706 321.799C261.956 318.744 261.19 315.62 260.427 312.503C165.464 366.107 47.4794 398.409 18.012 361.269C-19.0122 314.596 49.4457 203.245 169.046 111.422C193.8 92.4133 218.626 75.7294 242.808 61.6281C335.458 7.63069 418.951 -8.47114 452.634 29.6711C462.941 41.3415 466.709 76.7684 445.084 122.951C445.903 123.605 448.144 122.585 448.698 121.779C465.413 81.8971 471.989 43.6149 456.537 24.1273C419.384 -22.7019 286.4 11.8967 163.227 106.46Z" fill="white"/>
</svg>
